<svg xmlns="http://www.w3.org/2000/svg" viewBox="0 0 1440 2560" preserveAspectRatio="xMidYMid slice">
  <defs>
    <radialGradient id="edge-cyan" cx="18%" cy="12%" r="72%">
      <stop offset="0" stop-color="#20d8ff" stop-opacity=".28"/>
      <stop offset=".34" stop-color="#5e7cff" stop-opacity=".12"/>
      <stop offset="1" stop-color="#05060a" stop-opacity="0"/>
    </radialGradient>
    <radialGradient id="edge-violet" cx="92%" cy="86%" r="76%">
      <stop offset="0" stop-color="#c86cff" stop-opacity=".28"/>
      <stop offset=".42" stop-color="#7b87ff" stop-opacity=".12"/>
      <stop offset="1" stop-color="#05060a" stop-opacity="0"/>
    </radialGradient>
    <linearGradient id="glass" x1="0" y1="0" x2="1" y2="1">
      <stop offset="0" stop-color="#ffffff" stop-opacity=".16"/>
      <stop offset=".48" stop-color="#ffffff" stop-opacity=".035"/>
      <stop offset="1" stop-color="#ffffff" stop-opacity=".1"/>
    </linearGradient>
    <linearGradient id="sweep" x1="0" y1="0" x2="1" y2="0">
      <stop offset="0" stop-color="#22d3ee" stop-opacity="0"/>
      <stop offset=".38" stop-color="#22d3ee" stop-opacity=".22"/>
      <stop offset=".72" stop-color="#b56cff" stop-opacity=".24"/>
      <stop offset="1" stop-color="#b56cff" stop-opacity="0"/>
    </linearGradient>
    <filter id="blur">
      <feGaussianBlur stdDeviation="34"/>
    </filter>
    <filter id="soft-shadow" x="-20%" y="-20%" width="140%" height="140%">
      <feDropShadow dx="0" dy="24" stdDeviation="32" flood-color="#000000" flood-opacity=".38"/>
    </filter>
    <pattern id="grain" width="140" height="140" patternUnits="userSpaceOnUse">
      <path d="M8 12h1M40 62h1M90 22h1M120 104h1M18 116h1M72 92h1M112 44h1" stroke="#fff" stroke-opacity=".07"/>
    </pattern>
  </defs>

  <rect width="1440" height="2560" fill="#05060a"/>
  <rect width="1440" height="2560" fill="url(#edge-cyan)"/>
  <rect width="1440" height="2560" fill="url(#edge-violet)"/>
  <rect width="1440" height="2560" fill="url(#grain)" opacity=".55"/>

  <g filter="url(#blur)" opacity=".74">
    <path d="M-180 740C210 560 430 600 680 720c260 126 498 116 940-74" fill="none" stroke="url(#sweep)" stroke-width="88"/>
    <path d="M-120 1730c410-190 690-182 1020 16 210 126 430 142 690 34" fill="none" stroke="url(#sweep)" stroke-width="74"/>
  </g>

  <g fill="none" stroke="#ffffff" stroke-opacity=".08">
    <path d="M120 400c280-118 520-112 800 18 140 66 258 86 400 54"/>
    <path d="M80 1830c310-142 600-124 860 20 144 80 268 104 420 70"/>
    <path d="M190 520c220-78 420-62 642 40 156 72 286 82 418 42" stroke-opacity=".045"/>
    <path d="M164 1970c234-86 458-70 704 48 148 70 284 82 430 28" stroke-opacity=".045"/>
  </g>

  <g filter="url(#soft-shadow)" opacity=".52">
    <rect x="126" y="612" width="1188" height="676" rx="58" fill="url(#glass)" stroke="#fff" stroke-opacity=".13"/>
    <rect x="188" y="690" width="1064" height="520" rx="38" fill="#040509" fill-opacity=".42" stroke="#fff" stroke-opacity=".08"/>
    <rect x="118" y="1418" width="1204" height="330" rx="52" fill="url(#glass)" stroke="#fff" stroke-opacity=".11"/>
    <rect x="188" y="1512" width="760" height="32" rx="16" fill="#fff" fill-opacity=".1"/>
    <rect x="188" y="1600" width="560" height="24" rx="12" fill="#fff" fill-opacity=".06"/>
  </g>

  <rect width="1440" height="2560" fill="none" stroke="#ffffff" stroke-opacity=".04"/>
  <rect width="1440" height="2560" fill="#000000" opacity=".22"/>
</svg>
